<svg version="1.1" viewBox="0 0 3300 3164.2" xmlns="http://www.w3.org/2000/svg">
 <g transform="matrix(23.748 0 0 23.748 462.63 31.281)" fill="#3fc1c9" featureKey="CGau9U-0">
  <path d="m40.17 17.213c-0.412-0.372-1.042-0.338-1.412 0.072l-2.969 3.289c-7e-3 8e-3 -0.013 0.015-0.018 0.02-0.356 0.416-0.312 1.04 0.1 1.401 0.402 0.354 1.006 0.327 1.375-0.052 0.052-0.036 0.424-0.265 1.323-0.04 0.757 0.189 0.847 0.712 0.85 0.931-9e-3 0.544 0.419 0.998 0.966 1.017h0.035c0.537 0 0.98-0.425 0.999-0.966 0.027-0.799-0.431-2.439-2.365-2.923-5e-3 -1e-3 -0.011-2e-3 -0.016-4e-3l1.203-1.333c0.372-0.41 0.34-1.042-0.071-1.412z"/>
  <path d="m58.581 22.885c0.018 0.541 0.462 0.966 0.998 0.966h0.035c0.547-0.019 0.975-0.472 0.966-1.017 3e-3 -0.219 0.093-0.742 0.851-0.931 0.898-0.225 1.271 4e-3 1.322 0.04 0.37 0.379 0.975 0.406 1.376 0.052 0.411-0.361 0.456-0.985 0.1-1.401-5e-3 -5e-3 -0.011-0.012-0.018-0.02l-2.969-3.289c-0.37-0.41-1.001-0.444-1.412-0.072-0.41 0.37-0.442 1.002-0.072 1.412l1.203 1.333c-5e-3 1e-3 -0.011 2e-3 -0.016 4e-3 -1.933 0.484-2.391 2.124-2.364 2.923z"/>
  <path d="m81.496 32.221c-0.612-7.661-4.079-15.888-11.89-21.043-0.125-0.052-0.255-0.088-0.385-0.088-0.329 0-0.651 0.16-0.845 0.456-0.296 0.449-0.179 1.041 0.247 1.358 8.737 5.807 10.528 15.167 10.873 19.478 0.046 0.578 0.07 1.143 0.075 1.697 0.069 8.312-4.389 14.049-9.092 20.101-4.735 6.095-9.622 12.382-10.25 21.56h-7.269c0.374-3.803 1.607-11.746 3.885-17.102 1.565 1.012 3.385 1.302 5.157 0.793 1.925-0.554 3.424-1.979 3.818-3.629 0.325-1.36-0.12-2.688-1.25-3.74-0.071-0.066-0.152-0.122-0.24-0.165-1.685-0.827-3.37-0.817-4.876 0.026-1.221 0.683-2.278 1.889-3.189 3.409-2.087-2.779-2.973-7.236-2.897-10.521 0.049-2.19 0.505-3.59 0.95-4.054 0.186 0.213 0.368 0.431 0.569 0.633 1.225 1.225 3.337 1.962 5.29 1.962 0.646 0 1.276-0.081 1.851-0.252 1.605-0.478 2.667-1.591 2.99-3.132 0.112-0.542-0.235-1.074-0.776-1.188-0.547-0.11-1.074 0.235-1.188 0.776-0.171 0.822-0.695 1.353-1.598 1.622-1.621 0.484-4.026-0.081-5.15-1.206-2.076-2.077-3.139-4.908-2.993-7.973 0.133-2.781 1.554-3.89 1.818-4.073 0.852 0.034 1.963 0.035 3.238 0.031 0.641-2e-3 1.178-4e-3 1.463 6e-3 0.211 7e-3 2.086 0.111 2.94 1.417 0.191 0.294 0.513 0.455 0.84 0.455 0.188 0 0.378-0.053 0.547-0.163 0.464-0.303 0.595-0.924 0.291-1.388-1.065-1.632-3.047-2.271-4.547-2.325-0.298-0.01-0.866-9e-3 -1.541-7e-3 -1.326 4e-3 -3.549 0.012-4.151-0.112-0.572-0.118-1.211-0.749-1.327-0.983-0.15-0.453-0.338-1.417-7e-3 -1.93 0.085-0.114 0.503-0.347 0.779-0.501 1.067-0.594 2.854-1.588 2.488-3.938-0.086-0.547-0.601-0.921-1.145-0.837-0.548 0.085-0.923 0.597-0.838 1.145 0.121 0.775-0.243 1.154-1.111 1.667-0.339-0.297-0.853-1.107-0.262-3.134 0.846-2.913 3.329-2.5 3.435-2.482 0.551 0.096 1.066-0.265 1.164-0.81s-0.265-1.066-0.81-1.165c-0.856-0.153-2.238-0.066-3.471 0.716-0.44-1.096-0.924-2.814-0.519-4.087 0.562-1.762 3.688-2.62 5.137-2.479 1.286 0.124 4.22 1.889 5.253 3.371 0.497 0.713 0.68 1.941 0.551 3.646-0.846-0.608-1.622-1.421-2.287-2.658-0.262-0.489-0.869-0.673-1.356-0.409-0.488 0.262-0.671 0.87-0.409 1.357 1.75 3.259 4.188 4.234 6.338 5.094 1.864 0.746 3.474 1.39 4.698 3.379 0.833 1.354 1.131 2.483 0.839 3.181-0.217 0.516-0.74 0.76-1.001 0.854-2.076-1.311-4.276-1.246-4.407-1.235-0.553 0.024-0.982 0.492-0.958 1.045s0.503 0.999 1.041 0.958c0.134 0 3.375-0.083 4.997 2.756 1.729 3.024 1.438 4.146 1.244 4.888-0.088 0.336-0.658 1.106-1.313 1.415-0.4 0.188-0.611 0.091-0.68 0.061-0.026-0.012-0.055-0.01-0.082-0.02-1.289-0.934-3.188-1.944-5.883-2.595-3.007-0.727-5.227-0.448-6.251 0.783-0.395 0.476-0.946 1.522-0.202 3.184 0.228 0.505 0.82 0.731 1.326 0.504 0.505-0.227 0.731-0.82 0.505-1.325-0.129-0.287-0.312-0.81-0.086-1.082 0.293-0.353 1.515-0.773 4.236-0.115 3.813 0.92 5.759 2.593 6.579 3.508 0.39 0.436 2.46 4.215-0.271 7.069-1.853 1.936-3.876 1.559-6.022 1.158-2.182-0.405-4.896-0.912-6.419 2.216-0.243 0.499-0.035 1.098 0.462 1.34 0.141 0.069 0.292 0.102 0.438 0.102 0.372 0 0.729-0.207 0.902-0.563 0.82-1.685 1.893-1.562 4.248-1.123 2.333 0.436 5.236 0.976 7.839-1.744 3.43-3.584 1.562-8.239 0.424-9.66 1.1-0.604 1.962-1.743 2.179-2.564 0.346-1.329 0.537-2.987-1.432-6.432-0.242-0.423-0.513-0.791-0.797-1.125 0.479-0.33 0.938-0.802 1.22-1.452 0.583-1.353 0.257-3.048-0.968-5.04-1.571-2.554-3.65-3.385-5.66-4.189-0.382-0.153-0.758-0.308-1.129-0.471 5e-3 -0.038 0.024-0.07 0.025-0.11l0.016-0.151c0.103-0.934 0.414-3.776-0.848-5.585-1.322-1.897-4.706-4.027-6.705-4.22-2.094-0.207-6.298 0.917-7.24 3.865-0.782 2.453 0.516 5.41 0.917 6.23-0.292 0.461-0.545 1.002-0.733 1.646-0.701 2.407-0.211 3.946 0.522 4.836-0.067 0.077-0.139 0.151-0.195 0.24-0.871 1.354-0.369 3.163-0.194 3.685 0.19 0.57 0.908 1.406 1.831 1.908-0.693 0.906-1.415 2.342-1.517 4.468-0.126 2.636 0.518 5.126 1.819 7.244-0.032 0.022-0.07 0.032-0.101 0.06-1.366 1.224-1.63 4.007-1.665 5.558-0.093 4.043 1.083 9.366 3.892 12.495-3.102 6.713-4.16 16.896-4.31 18.479h-1.893c-0.149-1.583-1.208-11.767-4.309-18.479 2.81-3.129 3.984-8.451 3.892-12.495-0.036-1.55-0.299-4.334-1.666-5.558-0.031-0.028-0.069-0.037-0.101-0.06 1.303-2.118 1.946-4.608 1.82-7.244-0.102-2.126-0.824-3.562-1.517-4.468 0.922-0.502 1.64-1.338 1.83-1.908 0.175-0.522 0.676-2.332-0.194-3.685-0.057-0.088-0.127-0.163-0.195-0.24 0.733-0.89 1.222-2.429 0.521-4.836-0.188-0.644-0.44-1.185-0.733-1.646 0.402-0.821 1.7-3.777 0.917-6.23-0.942-2.948-5.146-4.072-7.24-3.865-1.999 0.193-5.383 2.323-6.705 4.22-1.262 1.809-0.95 4.651-0.848 5.585l0.016 0.151c1e-3 0.04 0.02 0.072 0.025 0.11-0.371 0.163-0.747 0.318-1.128 0.471-2.011 0.804-4.09 1.636-5.661 4.189-1.226 1.991-1.551 3.687-0.968 5.04 0.281 0.649 0.742 1.122 1.22 1.452-0.284 0.334-0.555 0.702-0.796 1.125-1.969 3.445-1.778 5.104-1.433 6.432 0.218 0.822 1.081 1.961 2.181 2.564-1.138 1.421-3.007 6.076 0.422 9.66 2.603 2.719 5.506 2.179 7.839 1.744 2.355-0.438 3.428-0.562 4.249 1.123 0.173 0.356 0.53 0.563 0.901 0.563 0.147 0 0.297-0.032 0.439-0.102 0.497-0.242 0.705-0.842 0.462-1.34-1.523-3.128-4.237-2.622-6.418-2.216-2.146 0.401-4.17 0.777-6.022-1.158-2.731-2.854-0.662-6.633-0.272-7.069 0.821-0.916 2.766-2.588 6.579-3.508 2.722-0.658 3.944-0.238 4.237 0.115 0.226 0.272 0.043 0.794-0.085 1.082-0.227 0.505 0 1.099 0.504 1.325 0.505 0.227 1.099 1e-3 1.325-0.504 0.745-1.662 0.194-2.708-0.202-3.184-1.023-1.231-3.243-1.51-6.25-0.783-2.695 0.65-4.595 1.661-5.884 2.595-0.027 0.01-0.056 7e-3 -0.083 0.02-0.068 0.031-0.278 0.128-0.679-0.061-0.655-0.308-1.225-1.078-1.314-1.415-0.193-0.742-0.484-1.863 1.245-4.888 1.623-2.839 4.864-2.757 4.997-2.756 0.538 0.041 1.017-0.405 1.041-0.958s-0.405-1.021-0.958-1.045c-0.13-0.01-2.332-0.075-4.408 1.235-0.261-0.094-0.784-0.338-1-0.854-0.292-0.698 6e-3 -1.828 0.839-3.181 1.224-1.989 2.833-2.633 4.698-3.379 2.15-0.86 4.587-1.835 6.338-5.094 0.262-0.488 0.079-1.096-0.409-1.357-0.488-0.265-1.095-0.08-1.357 0.409-0.664 1.236-1.441 2.05-2.286 2.658-0.129-1.706 0.053-2.934 0.55-3.646 1.033-1.482 3.966-3.247 5.252-3.371 1.45-0.142 4.575 0.717 5.137 2.479 0.406 1.273-0.078 2.991-0.519 4.087-1.231-0.782-2.614-0.869-3.471-0.716-0.545 0.099-0.907 0.62-0.809 1.165 0.098 0.544 0.613 0.905 1.165 0.81 0.106-0.018 2.588-0.431 3.435 2.482 0.59 2.027 0.076 2.837-0.263 3.134-0.867-0.513-1.231-0.892-1.111-1.667 0.085-0.547-0.29-1.06-0.837-1.145-0.544-0.084-1.06 0.29-1.145 0.837-0.365 2.35 1.42 3.345 2.487 3.938 0.277 0.154 0.695 0.387 0.78 0.501 0.33 0.514 0.142 1.477-7e-3 1.93-0.116 0.234-0.755 0.865-1.328 0.983-0.603 0.124-2.825 0.116-4.15 0.112-0.676-2e-3 -1.244-3e-3 -1.542 7e-3 -1.5 0.054-3.48 0.693-4.547 2.325-0.303 0.464-0.172 1.085 0.291 1.388 0.169 0.11 0.359 0.163 0.547 0.163 0.328 0 0.648-0.16 0.841-0.455 0.853-1.306 2.729-1.41 2.94-1.417 0.284-0.01 0.822-8e-3 1.463-6e-3 1.275 4e-3 2.386 3e-3 3.237-0.031 0.265 0.183 1.686 1.292 1.819 4.073 0.146 3.065-0.917 5.896-2.993 7.973-1.125 1.125-3.528 1.69-5.15 1.206-0.904-0.269-1.427-0.8-1.599-1.622-0.113-0.541-0.641-0.886-1.187-0.776-0.542 0.114-0.889 0.645-0.776 1.188 0.323 1.542 1.384 2.654 2.99 3.132 0.574 0.171 1.203 0.252 1.851 0.252 1.953 0 4.065-0.738 5.29-1.962 0.202-0.202 0.383-0.419 0.569-0.633 0.444 0.464 0.9 1.864 0.951 4.054 0.075 3.285-0.812 7.742-2.898 10.521-0.912-1.521-1.969-2.727-3.188-3.409-1.507-0.844-3.193-0.854-4.877-0.026-0.087 0.043-0.168 0.099-0.241 0.165-1.13 1.052-1.573 2.38-1.249 3.74 0.394 1.65 1.893 3.075 3.817 3.629 1.774 0.509 3.593 0.219 5.158-0.793 2.276 5.355 3.51 13.299 3.884 17.102h-7.268c-0.629-9.178-5.515-15.465-10.251-21.56-5.016-6.456-9.754-12.553-9.016-21.798 0.344-4.311 2.136-13.671 10.873-19.478 0.426-0.317 0.543-0.909 0.248-1.358-0.194-0.295-0.516-0.456-0.845-0.456-0.131 0-0.26 0.036-0.385 0.088-7.811 5.155-11.277 13.382-11.889 21.043-0.196 2.448-0.041 4.688 0.381 6.771 2.877 14.229 18.157 21.207 18.91 37.502-0.667 0.552-1.102 1.375-1.102 2.307v0.156c0 0.89 0.396 1.682 1.011 2.232-0.615 0.552-1.011 1.344-1.011 2.232v0.157c0 0.889 0.396 1.681 1.011 2.232-0.615 0.551-1.011 1.344-1.011 2.232v0.158c0 1.659 1.349 3.009 3.008 3.009h0.321c1.534 2.295 5.238 3.791 9.772 3.791s8.238-1.496 9.77-3.791h0.57c1.659 0 3.009-1.35 3.009-3.009v-0.156c0-0.889-0.396-1.682-1.011-2.232 0.614-0.552 1.011-1.344 1.011-2.232v-0.157c0-0.889-0.396-1.681-1.011-2.232 0.614-0.551 1.011-1.343 1.011-2.232v-0.156c0-0.854-0.36-1.62-0.934-2.169 0.773-18.787 20.824-25.208 19.29-44.413zm-21.061 21.45c0.906-0.506 1.823-0.521 2.877-0.04 0.516 0.525 0.705 1.098 0.561 1.703-0.227 0.945-1.199 1.816-2.422 2.168-0.786 0.225-2.23 0.394-3.728-0.692 0.797-1.456 1.7-2.573 2.712-3.139zm-21.885 3.831c-1.223-0.352-2.195-1.223-2.421-2.168-0.145-0.605 0.043-1.178 0.56-1.703 1.054-0.48 1.971-0.466 2.876 0.04 1.013 0.566 1.915 1.683 2.712 3.139-1.496 1.086-2.941 0.917-3.727 0.692zm22.584 30.698c0 0.555-0.448 1.003-1.003 1.003h-1.859c-0.416 2.128-4.053 3.791-8.48 3.791s-8.064-1.663-8.48-3.791h-1.609c-0.554 0-1.002-0.448-1.002-1.003v-0.156c0-0.555 0.448-1.003 1.002-1.003h20.429c0.555 0 1.003 0.448 1.003 1.003v0.156zm0-4.621c0 0.554-0.448 1.003-1.003 1.003h-20.429c-0.554 0-1.002-0.449-1.002-1.003v-0.157c0-0.554 0.448-1.002 1.002-1.002h20.429c0.555 0 1.003 0.448 1.003 1.002zm0-4.622c0 0.555-0.448 1.003-1.003 1.003h-20.429c-0.554 0-1.002-0.448-1.002-1.003v-0.156c0-0.555 0.448-1.003 1.002-1.003h20.429c0.555 0 1.003 0.448 1.003 1.003z"/>
 </g>
 <path d="m260.1 2767.3c0-30.602-27.276-42.244-50.56-52.223-32.265-14.303-58.21-31.6-58.21-63.865 0-27.941 20.29-53.221 60.206-53.221 25.28 0 32.598 7.3179 40.248 7.3179 3.3263 0 5.6547 0 7.3179-4.6569h6.32l1.9958 41.579-3.9916-0.3326c-2.661-0.3326-3.6589-0.9979-4.9895-3.9916-7.6505-16.964-25.613-32.265-48.564-32.265-24.282 0-38.253 17.297-38.253 37.255 0 23.949 15.301 34.594 42.244 47.234 28.274 13.305 69.52 27.941 69.52 68.189 0 33.596-30.935 55.549-65.196 55.549-26.278 0-40.248-12.307-49.229-12.307-3.9916 0-7.6505 2.9937-8.981 7.6505h-7.3179l-2.661-44.24h6.6526c1.6632 0 2.3284 1.3305 3.9916 4.3242 8.981 17.962 24.947 36.589 55.217 36.589 27.941 0 44.24-16.299 44.24-38.585zm177.96 23.95c0 8.3157 8.981 10.977 18.96 12.307v6.32c-19.958-0.9979-40.581-0.9979-60.871 0v-6.32c10.312-1.6631 18.96-3.9916 18.96-12.307v-95.132c0-27.941-6.6526-45.903-25.613-45.903-26.61 0-46.236 25.28-50.227 29.937v111.1c0 8.3157 8.981 10.644 18.96 12.307v6.32c-20.29-0.9979-40.581-0.9979-60.872 0v-6.32c10.312-1.3305 18.627-3.9916 18.627-12.307v-180.95c0-10.312-5.9874-13.638-19.293-12.307v-6.32c21.621-2.9937 31.267-11.642 37.587-11.642 2.661 0 4.9895 1.6632 4.9895 6.32v71.516l-1.3305 15.966c4.6568-7.9832 26.278-33.596 55.882-33.596 28.274 0 44.24 12.307 44.24 56.547zm101.12-150.68c39.25 0 72.181 32.93 72.181 84.488 0 54.219-32.93 88.147-70.518 88.147-39.25 0-72.181-33.928-72.181-85.486 0-54.219 32.93-87.149 70.518-87.149zm45.57 90.476c0-48.232-19.625-83.49-50.56-83.49-24.282 0-39.583 20.956-39.583 73.512 0 49.229 19.625 84.488 50.56 84.488 23.949 0 39.583-21.288 39.583-74.509zm222.86-87.815h57.878v6.32l-9.3137 1.6632c-4.6568 1.3305-14.968 3.3263-19.293 16.299l-51.225 142.37h-1.6632l-46.568-127.73-45.57 127.73h-1.9958l-51.89-143.7c-2.9937-7.9832-7.3179-13.305-14.968-14.968l-9.9789-1.6632v-6.32h64.863v6.6526l-10.312 1.3306c-7.6505 0.9979-7.3179 8.6484-5.3221 14.968l36.257 104.11 35.259-98.791-1.9958-5.3221c-2.661-7.9832-7.3179-14.303-14.303-14.968l-8.6484-1.3306v-6.6526h61.537v6.6526l-8.981 1.3306c-7.3179 0.9979-7.3179 8.6484-4.9895 14.968l36.257 104.11 36.257-102.78c2.661-6.9853 0.66526-14.303-13.305-16.299l-7.9832-1.3306zm343.61 148.02c0 8.3157 6.32 10.312 23.284 12.307v6.32c-22.619-0.9979-47.566-0.9979-70.518 0v-6.32c17.297-1.9958 23.617-3.9916 23.617-12.307v-164.99l-66.526 183.61-76.505-184.28v165.65c0 8.3157 6.9852 9.9789 27.276 12.307v6.32c-21.288-0.9979-42.577-0.9979-63.2 0v-6.32c20.956-2.3284 26.943-3.9916 26.943-12.307v-168.98c0-9.3137-7.6505-10.644-24.615-12.64v-6.32c16.964 0.9979 33.928 0.9979 50.893 0l66.526 163.32 58.876-163.32c13.97 0.9979 31.933 0.9979 46.236 0v5.6547c-15.966 1.9958-22.286 4.3242-22.286 12.64zm160.99-15.966c1.3305 0 2.9937 1.3305 2.3284 3.6589-5.9874 17.63-23.949 34.261-53.554 34.261-42.244 0-74.842-30.269-74.842-85.819 0-54.219 32.93-86.817 71.848-86.817 31.6 0 63.533 21.621 63.533 70.185 0 9.3137-3.3263 14.968-12.64 14.968h-94.8c0 53.221 22.619 79.832 49.895 79.832 15.966 0 28.939-7.3179 37.587-25.28 1.3305-2.661 2.3284-4.9894 5.3221-4.9894zm-14.636-56.215c0-44.573-11.975-71.516-39.25-71.516-27.276 0-43.907 27.276-44.24 71.516zm262.45-119.41h3.6589l-10.977 44.905h-6.6526c1.9957-22.952 1.6631-33.928-12.973-33.928h-32.93v180.62c0 8.3157 6.32 10.312 23.284 12.307v6.32c-22.952-0.9979-47.566-0.9979-70.518 0v-6.32c16.964-1.9958 23.284-3.9916 23.284-12.307v-180.62h-28.606c-14.636 0-17.962 5.6547-31.932 33.928h-5.9874l12.307-44.905h3.6589c6.9852 2.3285 10.312 3.659 24.615 3.659h84.821c14.636 0 17.962-1.3305 24.947-3.659zm155.01 191.6c0 8.3157 8.981 10.977 18.96 12.307v6.32c-19.958-0.9979-40.581-0.9979-60.872 0v-6.32c10.312-1.6631 18.96-3.9916 18.96-12.307v-95.132c0-27.941-6.6526-45.903-25.613-45.903-26.61 0-46.236 25.28-50.227 29.937v111.1c0 8.3157 8.9811 10.644 18.96 12.307v6.32c-20.29-0.9979-40.581-0.9979-60.872 0v-6.32c10.312-1.3305 18.627-3.9916 18.627-12.307v-180.95c0-10.312-5.9873-13.638-19.293-12.307v-6.32c21.621-2.9937 31.267-11.642 37.587-11.642 2.6611 0 4.9895 1.6632 4.9895 6.32v71.516l-1.3305 15.966c4.6568-7.9832 26.278-33.596 55.882-33.596 28.274 0 44.24 12.307 44.24 56.547zm156.67-15.966c1.3305 0 2.9937 1.3305 2.3284 3.6589-5.9873 17.63-23.949 34.261-53.554 34.261-42.244 0-74.842-30.269-74.842-85.819 0-54.219 32.93-86.817 71.848-86.817 31.6 0 63.533 21.621 63.533 70.185 0 9.3137-3.3263 14.968-12.64 14.968h-94.8c0 53.221 22.619 79.832 49.895 79.832 15.966 0 28.939-7.3179 37.587-25.28 1.3305-2.661 2.3284-4.9894 5.3221-4.9894zm-14.636-56.215c0-44.573-11.975-71.516-39.25-71.516-27.276 0-43.907 27.276-44.24 71.516zm236.17-115.76c21.288 0.9979 42.909 0.9979 64.863 0v6.32c-21.288 2.3284-28.274 3.9916-28.274 12.307v187.94h-5.9873l-117.09-184.28v165.65c0 8.3157 6.9853 9.9789 27.276 12.307v6.32c-21.288-0.9979-42.577-0.9979-64.863 0v-6.32c22.619-2.3284 28.606-3.9916 28.606-12.307v-168.64c0-9.6463-7.6505-10.977-24.615-12.973v-6.32c16.299 0.9979 32.265 0.9979 48.897 0l98.791 157v-138.37c0-8.3157-5.9874-9.9789-27.608-12.307zm209.22 180.29c0 10.977 5.9873 13.305 18.96 11.975v6.6526c-22.952 4.9895-28.274 11.309-37.255 11.309-2.9937 0-4.6569-2.661-4.3242-5.9873l2.661-34.926c-6.6526 8.9811-26.61 40.914-55.882 40.914-27.941 0-46.236-12.973-46.236-57.878v-90.808c0-9.6463-2.6611-12.973-9.3137-12.64l-9.9789 0.3326v-7.3179l35.592-3.3263c4.3242-0.3326 6.6526 0.9979 6.6526 5.3221v110.77c0 27.608 7.9832 44.24 27.941 44.24 27.608 0 44.24-30.269 47.899-36.589v-100.79c0-9.6463-1.9958-12.973-8.6484-12.64l-10.644 0.3326v-7.3179l35.592-3.3263c5.6548-0.3326 6.9853 0.9979 6.9853 5.3221zm258.79 7.6506c0 8.3157 8.981 10.977 18.96 12.307v6.32c-20.29-0.9979-40.581-0.9979-60.871 0v-6.32c10.312-1.9958 18.627-3.9916 18.627-12.307v-102.45c0-23.617-5.6547-38.585-22.952-38.585-23.617 0-43.242 20.956-47.566 30.602v110.43c0 8.3157 8.981 10.312 19.293 12.307v6.32c-20.29-0.9979-40.914-0.9979-61.204 0v-6.32c10.644-1.9958 18.96-3.9916 18.96-12.307v-102.45c0-23.617-5.9874-38.585-23.617-38.585-23.284 0-42.577 20.956-46.901 30.602v110.43c0 8.3157 8.981 10.312 18.96 12.307v6.32c-20.29-0.9979-40.581-0.9979-60.872 0v-6.32c10.312-1.3305 18.627-3.9916 18.627-12.307v-120.75c0-10.312-5.9874-13.638-19.293-12.307v-6.32c21.621-2.9937 31.267-11.642 37.587-11.642 2.661 0 5.3221 1.9958 4.9895 5.6548l-2.9937 28.606c6.9852-11.309 24.615-34.261 56.215-34.261 19.958 0 35.592 11.31 38.585 34.261 5.9874-11.642 23.95-34.261 55.549-34.261 27.941 0 39.916 14.636 39.916 47.566zm114.09-150.68c40.248 0 68.189 30.935 68.189 86.151 0 54.552-31.267 86.152-69.52 86.152-23.617 0-33.263-14.303-45.903-14.303-6.6526 0-11.309 3.659-14.636 11.31h-3.9916c-2.3284 0-3.3263-1.6632-3.3263-3.6589v-195.92c0-10.312-5.9874-13.638-19.293-12.307v-6.32c21.621-2.9937 31.267-11.642 37.255-11.642 2.9937 0 5.3221 1.6632 5.3221 6.32v77.503c9.3137-11.975 26.943-23.284 45.903-23.284zm-1.6631 165.65c30.602 0 45.238-21.288 45.238-73.512 0-43.907-12.307-84.821-44.905-84.821-19.625 0-35.259 13.97-44.573 25.945v97.794c0.3327 9.3137 18.295 34.594 44.24 34.594zm217.54-30.935c1.3305 0 2.9937 1.3305 2.3284 3.6589-5.9873 17.63-23.949 34.261-53.554 34.261-42.244 0-74.842-30.269-74.842-85.819 0-54.219 32.93-86.817 71.848-86.817 31.6 0 63.532 21.621 63.532 70.185 0 9.3137-3.3263 14.968-12.64 14.968h-94.8c0 53.221 22.619 79.832 49.895 79.832 15.966 0 28.939-7.3179 37.587-25.28 1.3306-2.661 2.3284-4.9894 5.3221-4.9894zm-14.636-56.215c0-44.573-11.975-71.516-39.25-71.516-27.276 0-43.907 27.276-44.24 71.516zm125.73-79.166c16.964 0 26.278 7.3179 26.278 15.634 0 7.3179-2.9937 13.97-11.975 13.97-15.634 0-9.9789-17.297-28.274-17.297-18.627 0-29.604 25.945-32.598 30.935v108.11c0 8.3157 9.6463 10.977 18.295 12.307v6.32c-20.29-1.6632-39.916-1.6632-60.539 0v-6.32c10.644-1.3305 19.625-3.9916 19.625-12.307v-120.41c0-10.312-5.9873-13.638-19.293-12.307v-6.3199c21.621-2.9937 30.602-11.975 36.257-11.975 3.3263 0 5.9874 1.9958 5.6548 5.6548l-4.9895 31.267c11.309-20.29 25.28-37.255 51.558-37.255zm147.69 126.07c0 27.276-24.947 46.901-47.234 46.901-20.623 0-29.937-10.644-42.577-10.644-5.6547 0-8.6484 3.6589-9.6463 7.3179h-5.9873l-3.659-43.242h1.9958c3.3263 0 7.3179 0 7.6505 3.659 3.659 19.293 33.263 35.592 50.56 35.592 16.964 0 27.608-11.642 27.608-28.274 0-20.956-17.962-29.272-46.236-44.573-25.613-13.97-40.581-29.272-40.581-52.223 0-19.958 17.297-39.916 44.573-39.916 19.625 0 26.943 9.3136 36.589 9.3136 3.3263 0 6.32-1.9957 7.9831-6.6526h6.32l2.9937 39.916h-2.9937c-3.6589 0-3.9915-1.3306-5.3221-3.659-9.3136-16.964-28.606-32.598-44.572-32.598-17.962 0-25.945 13.638-25.945 26.943 0 17.297 10.977 25.613 32.93 37.587 21.954 11.642 55.549 25.945 55.549 54.552z" fill="#f5f5f5" stroke-width="16.632"/>
</svg>
